<svg width="108" height="32" viewBox="0 0 108 32" fill="none" xmlns="http://www.w3.org/2000/svg">
<path d="M14.9665 3.44034L6.12155 12.3055C5.42758 13.002 5.42758 14.13 6.12155 14.8265C6.81552 15.523 7.94102 15.523 8.63751 14.8265L17.4825 5.96135C18.1765 5.26485 18.1765 4.13683 17.4825 3.44034C16.7885 2.74385 15.663 2.74385 14.9665 3.44034Z" fill="#202020"/>
<path d="M22.3327 10.8232L13.4878 19.6883C12.7938 20.3848 12.7938 21.5128 13.4878 22.2093C14.1817 22.9058 15.3072 22.9058 16.0037 22.2093L24.8487 13.3442C25.5427 12.6477 25.5427 11.5196 24.8487 10.8232C24.1547 10.1267 23.0292 10.1267 22.3327 10.8232Z" fill="#202020"/>
<path d="M15.9958 9.7919L7.15085 18.6571C6.45688 19.3536 6.45688 20.4816 7.15085 21.1781C7.84482 21.8746 8.97031 21.8746 9.66681 21.1781L18.5118 12.3129C19.2057 11.6164 19.2057 10.4884 18.5118 9.7919C17.8178 9.09541 16.6923 9.09541 15.9958 9.7919Z" fill="#202020"/>
<path d="M23.362 17.1767L14.5171 26.0418C13.8231 26.7383 13.8231 27.8663 14.5171 28.5628C15.211 29.2593 16.3365 29.2593 17.033 28.5628L25.878 19.6977C26.572 19.0012 26.572 17.8732 25.878 17.1767C25.184 16.4802 24.0585 16.4802 23.362 17.1767Z" fill="#202020"/>
<path d="M37.9461 22.9983C38.567 25.0502 39.9197 26.2944 42.5874 26.2944C44.7807 26.2944 46.3505 25.3051 46.3505 23.5838C46.3505 21.8626 44.5232 21.3124 41.8177 20.6537L40.4649 20.2877C37.2849 19.5179 34.9099 18.0894 34.9099 14.758C34.9099 11.4265 37.9789 9.11719 42.2568 9.11719C46.5347 9.11719 49.2731 10.9495 49.7122 14.7201H46.2041C45.6564 12.9989 44.3768 12.0474 42.1483 12.0474C39.8087 12.0474 38.6755 12.9989 38.6755 14.4273C38.6755 16.0022 39.8087 16.4414 42.1483 17.138L44.1951 17.7235C48.0314 18.8213 50.0429 19.9949 50.0429 23.2179C50.0429 26.9178 46.8628 29.2978 42.4764 29.2978C37.7972 29.2978 35.0563 27.2838 34.2891 22.9983H37.9436H37.9461Z" fill="black"/>
<path d="M71.4219 19.2984C71.4219 25.1587 67.8027 29.3331 61.6648 29.3331C55.5268 29.3331 52.0161 25.1587 52.0161 19.2984C52.0161 13.438 55.7438 9.11719 61.7379 9.11719C67.7321 9.11719 71.4219 13.3295 71.4219 19.2984ZM55.9255 19.263C55.9255 23.5485 57.9724 26.2591 61.6269 26.2591C65.2814 26.2591 67.3636 23.5485 67.3636 19.263C67.3636 14.9775 65.2435 12.1937 61.6269 12.1937C58.0102 12.1937 55.9255 15.1593 55.9255 19.263Z" fill="black"/>
<path d="M74.7842 2.66992H78.4766V28.8573H74.7842V2.66992Z" fill="black"/>
<path d="M88.0914 28.86L80.9287 9.63086H85.1309L88.1267 18.3835L90.2467 24.8673H90.3199C91.1982 22.1945 91.8191 20.8014 92.6948 17.9822L95.5089 9.63086H99.4915L92.1093 28.86H88.0888H88.0914Z" fill="black"/>
</svg>

