<svg width="108" height="32" viewBox="0 0 108 32" fill="none" xmlns="http://www.w3.org/2000/svg">
<path d="M14.9665 3.43936L6.12155 12.3045C5.42758 13.001 5.42758 14.129 6.12155 14.8255C6.81552 15.522 7.94102 15.522 8.63751 14.8255L17.4825 5.96037C18.1765 5.26388 18.1765 4.13586 17.4825 3.43936C16.7885 2.74287 15.663 2.74287 14.9665 3.43936Z" fill="white"/>
<path d="M22.3327 10.8232L13.4878 19.6883C12.7938 20.3848 12.7938 21.5128 13.4878 22.2093C14.1817 22.9058 15.3072 22.9058 16.0037 22.2093L24.8487 13.3442C25.5427 12.6477 25.5427 11.5196 24.8487 10.8232C24.1547 10.1267 23.0292 10.1267 22.3327 10.8232Z" fill="white"/>
<path d="M15.9958 9.79093L7.15085 18.6561C6.45688 19.3526 6.45688 20.4806 7.15085 21.1771C7.84482 21.8736 8.97031 21.8736 9.66681 21.1771L18.5118 12.3119C19.2057 11.6154 19.2057 10.4874 18.5118 9.79093C17.8178 9.09443 16.6923 9.09443 15.9958 9.79093Z" fill="white"/>
<path d="M23.362 17.1747L14.5171 26.0399C13.8231 26.7364 13.8231 27.8644 14.5171 28.5609C15.211 29.2574 16.3365 29.2574 17.033 28.5609L25.878 19.6957C26.572 18.9992 26.572 17.8712 25.878 17.1747C25.184 16.4782 24.0585 16.4782 23.362 17.1747Z" fill="white"/>
<path d="M37.9461 22.9964C38.567 25.0482 39.9197 26.2925 42.5874 26.2925C44.7807 26.2925 46.3505 25.3031 46.3505 23.5819C46.3505 21.8606 44.5232 21.3104 41.8177 20.6517L40.4649 20.2857C37.2849 19.516 34.9099 18.0875 34.9099 14.756C34.9099 11.4245 37.9789 9.11523 42.2568 9.11523C46.5347 9.11523 49.2731 10.9475 49.7122 14.7182H46.2041C45.6564 12.9969 44.3768 12.0454 42.1483 12.0454C39.8087 12.0454 38.6755 12.9969 38.6755 14.4254C38.6755 16.0003 39.8087 16.4394 42.1483 17.136L44.1951 17.7215C48.0314 18.8194 50.0429 19.993 50.0429 23.2159C50.0429 26.9159 46.8628 29.2959 42.4764 29.2959C37.7972 29.2959 35.0563 27.2818 34.2891 22.9964H37.9436H37.9461Z" fill="white"/>
<path d="M71.4219 19.2964C71.4219 25.1568 67.8027 29.3312 61.6648 29.3312C55.5268 29.3312 52.0161 25.1568 52.0161 19.2964C52.0161 13.436 55.7438 9.11523 61.7379 9.11523C67.7321 9.11523 71.4219 13.3275 71.4219 19.2964ZM55.9255 19.2611C55.9255 23.5465 57.9724 26.2571 61.6269 26.2571C65.2814 26.2571 67.3636 23.5465 67.3636 19.2611C67.3636 14.9756 65.2435 12.1918 61.6269 12.1918C58.0102 12.1918 55.9255 15.1573 55.9255 19.2611Z" fill="white"/>
<path d="M74.7842 2.66797H78.4766V28.8553H74.7842V2.66797Z" fill="white"/>
<path d="M88.0914 28.8571L80.9287 9.62793H85.1309L88.1267 18.3806L90.2467 24.8643H90.3199C91.1982 22.1916 91.8191 20.7984 92.6948 17.9793L95.5089 9.62793H99.4915L92.1093 28.8571H88.0888H88.0914Z" fill="white"/>
</svg>